<svg version="1.1" id="Layer_1" xmlns="http://www.w3.org/2000/svg" xmlns:xlink="http://www.w3.org/1999/xlink" x="0px" y="0px"
	 width="100%" viewBox="0 0 626 626" enable-background="new 0 0 626 626" xml:space="preserve">
<path fill="#FFFEFF" opacity="1.000000" stroke="none" 
	d="
M357.000000,627.000000 
	C238.000015,627.000000 119.500046,627.000000 1.000048,627.000000 
	C1.000032,418.333405 1.000032,209.666779 1.000016,1.000132 
	C209.666565,1.000088 418.333130,1.000088 626.999756,1.000044 
	C626.999878,209.666519 626.999878,418.333038 626.999939,626.999756 
	C537.166687,627.000000 447.333344,627.000000 357.000000,627.000000 
M235.348907,270.645752 
	C235.348907,270.645752 235.747345,270.896851 235.763412,271.419556 
	C236.499832,271.958008 237.236237,272.496460 237.996307,272.997101 
	C237.996307,272.997101 237.961502,273.026917 238.021683,273.671997 
	C238.384674,274.423859 238.747681,275.175690 239.122787,276.717163 
	C239.263031,277.222748 239.403290,277.728333 239.438400,278.597595 
	C239.513702,278.853638 239.658325,279.061615 239.740738,279.659149 
	C239.679764,279.967255 239.705719,280.267883 239.277039,281.151093 
	C236.259155,298.004730 232.892822,314.806000 230.351044,331.731140 
	C228.767288,342.277008 235.740692,351.109955 246.121292,353.053253 
	C256.114899,354.924042 264.280426,351.377075 271.272461,344.289948 
	C277.662537,337.812958 279.059540,329.574860 280.395172,321.097321 
	C282.925842,305.034637 285.852631,289.034424 288.840149,272.348511 
	C288.853668,271.885559 288.867188,271.422577 289.192474,270.237854 
	C290.044220,265.852997 290.910156,261.470886 291.744690,257.082733 
	C293.367981,248.547134 297.842468,244.676208 306.375397,244.627380 
	C316.118286,244.571609 325.861755,244.614471 335.836731,244.614471 
	C336.576904,240.474930 337.205017,236.962112 337.867218,233.258743 
	C336.779358,232.885086 336.028992,232.405670 335.276672,232.402557 
	C325.643585,232.362595 315.982391,231.951584 306.386993,232.560181 
	C300.258484,232.948914 293.776855,233.874039 289.870209,239.946121 
	C289.870209,239.946121 289.917542,239.876785 289.391876,240.010681 
	C289.224640,240.316681 289.057373,240.622681 288.983521,240.936737 
	C288.983521,240.936737 288.921143,240.866745 288.242615,240.960861 
	C283.860565,243.962524 281.688629,248.385605 280.613586,253.363297 
	C279.456970,258.718842 278.532043,264.126984 277.604889,269.529144 
	C273.983948,290.627045 270.402100,311.731689 266.287781,333.253510 
	C264.597321,335.072662 263.123840,337.179565 261.171692,338.651764 
	C256.946686,341.838074 252.110519,343.292908 247.210922,340.484192 
	C242.592789,337.836853 241.568176,333.413300 242.724106,328.364685 
	C243.131195,326.586700 243.345291,324.763763 243.630371,322.958679 
	C245.418213,311.638092 247.201218,300.316803 249.456833,288.410095 
	C249.976227,283.975159 250.979706,279.533356 250.916672,275.106720 
	C250.774857,265.147614 243.086655,257.570496 233.194000,257.028839 
	C219.366196,256.271698 207.369736,263.959198 203.510803,277.270966 
	C201.172134,285.338379 200.462967,293.878174 198.805328,302.312164 
	C198.662888,302.562500 198.723495,302.752075 198.879807,303.520538 
	C198.876083,303.952209 198.872360,304.383850 198.383179,305.402100 
	C197.452408,310.918762 196.521622,316.435394 195.248871,322.598541 
	C195.225769,323.083649 195.202652,323.568726 194.977295,324.782410 
	C193.242950,328.851868 192.084061,333.312897 189.642426,336.901062 
	C185.763901,342.600769 177.425537,343.254639 172.827591,338.277405 
	C170.545120,335.806671 169.562973,332.134644 167.823608,328.229034 
	C164.404602,326.735352 160.994965,325.351959 157.649261,329.329102 
	C157.416046,329.527618 157.219208,329.757294 156.275055,330.165588 
	C152.678238,337.313843 157.380249,348.846222 165.277466,351.878174 
	C167.067200,352.565277 169.118530,352.571014 171.701797,352.934418 
	C172.128784,353.020142 172.555756,353.105865 173.291199,353.765686 
	C173.206390,354.478882 173.370743,355.624634 172.998596,355.838989 
	C168.844803,358.231476 164.698395,360.670715 160.370895,362.719025 
	C155.058945,365.233368 154.155975,366.904205 155.874756,372.867737 
	C155.560471,374.157471 155.174332,375.434448 154.943161,376.738892 
	C152.893265,388.306122 160.752823,396.556671 172.436035,395.114868 
	C181.805542,393.958649 187.700836,388.500885 191.541779,379.655182 
	C191.634247,379.312683 191.726730,378.970215 191.807129,377.787689 
	C191.856201,375.528351 191.905258,373.269012 192.518234,370.544250 
	C192.731918,367.369781 193.378220,363.974854 188.880478,363.124237 
	C188.880478,363.124237 188.755417,363.199066 188.860519,362.464355 
	C187.263565,360.715759 185.482986,359.095032 184.141510,357.168518 
	C183.388733,356.087433 183.362244,354.500641 183.455612,352.981506 
	C183.455612,352.981506 183.928619,352.938843 184.760559,352.985321 
	C191.680832,351.813904 198.624359,350.726410 201.601578,342.898621 
	C201.990295,341.876587 202.856247,340.962311 203.682648,340.193146 
	C207.408279,336.725616 208.960175,329.213593 206.962845,323.212158 
	C207.060959,322.453888 207.159073,321.695587 207.664154,320.534943 
	C207.745148,319.973785 207.826157,319.412659 207.919998,318.046844 
	C208.801453,312.371613 209.682907,306.696381 210.822052,300.367157 
	C210.853073,299.901733 210.884079,299.436340 211.252335,298.553101 
	C211.210678,298.047546 211.169022,297.541992 211.506546,296.424164 
	C211.563202,295.951782 211.619858,295.479431 211.979813,294.238800 
	C212.674500,289.514282 213.369186,284.789764 214.043549,280.052307 
	C214.043549,280.052307 214.051193,280.047577 214.365295,279.815796 
	C214.582840,279.638489 214.679916,279.410065 214.913544,278.545776 
	C214.950180,278.336029 214.986832,278.126312 215.253250,277.777771 
	C215.430008,277.639832 215.443085,277.488190 215.762070,276.722626 
	C220.140472,270.503845 225.953674,267.667725 233.831604,269.617767 
	C234.241516,269.836090 234.651443,270.054443 235.348907,270.645752 
M262.503632,383.803223 
	C263.163239,382.103607 263.966858,380.444489 264.458710,378.697662 
	C267.283386,368.665588 262.243256,360.614563 252.132629,358.895782 
	C242.076172,357.186157 229.858322,365.985962 228.155823,376.164886 
	C226.049438,388.758423 234.717087,397.213531 247.199142,395.083801 
	C254.035172,393.917389 258.399414,389.742523 262.503632,383.803223 
M461.472748,306.229889 
	C465.071320,306.229889 468.669861,306.229889 472.233948,306.229889 
	C472.669312,296.329498 467.911591,289.671814 459.700562,288.142334 
	C451.372803,286.591095 443.463959,291.043243 441.020813,298.657837 
	C438.422363,306.756561 441.717560,315.211182 448.826050,318.684174 
	C456.276855,322.324432 465.667297,320.052277 469.973846,313.567108 
	C466.883850,311.321442 464.121643,310.641846 460.148773,312.630005 
	C454.501465,315.456146 449.140442,312.213806 448.561005,306.293701 
	C452.558685,306.293701 456.525452,306.293701 461.472748,306.229889 
M312.559113,290.949524 
	C305.600220,297.164948 303.821320,305.347137 307.924652,312.265991 
	C311.954468,319.060913 319.945160,321.990631 327.312408,319.374298 
	C336.324341,316.173920 340.615295,306.175049 336.738068,297.410400 
	C332.818939,288.551086 322.614471,285.560242 312.559113,290.949524 
M369.260406,291.305481 
	C364.946014,287.233185 360.218597,286.887390 355.100098,289.676727 
	C354.281830,290.122681 353.225830,290.771942 352.471375,290.578735 
	C349.934753,289.929169 347.484711,288.941406 344.664246,287.966461 
	C344.664246,299.287567 344.664246,309.298401 344.664246,319.308655 
	C347.321686,319.308655 349.562164,319.308655 352.395294,319.308655 
	C352.395294,313.215881 352.094818,307.400787 352.502380,301.635773 
	C352.767853,297.880737 354.970428,294.812103 359.262177,295.147766 
	C363.363464,295.468506 363.871460,298.890594 363.910889,302.192871 
	C363.977875,307.807953 363.929321,313.424377 363.929321,319.221893 
	C366.772736,319.221893 369.146088,319.221893 371.835388,319.221893 
	C371.835388,313.708191 372.096832,308.557495 371.750244,303.448029 
	C371.487091,299.568726 370.450134,295.741852 369.260406,291.305481 
M433.794434,294.990997 
	C429.947815,287.193848 424.026581,285.836578 415.830933,289.640808 
	C412.967896,289.290497 410.104889,288.940186 407.243866,288.590118 
	C407.243866,299.383179 407.243866,309.290741 407.243866,319.273010 
	C409.806793,319.273010 412.048645,319.273010 414.431976,319.273010 
	C414.580963,318.353333 414.761414,317.726898 414.771942,317.097626 
	C414.858154,311.944061 414.685120,306.773590 415.054810,301.641663 
	C415.313324,298.052917 417.221375,295.163727 421.256989,295.115448 
	C425.529083,295.064362 426.266693,298.326691 426.323242,301.687988 
	C426.420319,307.458008 426.350098,313.230896 426.350098,319.294495 
	C429.278839,319.294495 431.513184,319.294495 433.955750,319.294495 
	C433.955750,311.348633 433.955750,303.563568 433.794434,294.990997 
M386.048431,310.443024 
	C386.048431,299.369995 386.048431,288.296997 386.048431,277.174683 
	C383.241394,277.174683 380.841644,277.174683 378.459778,277.174683 
	C378.459778,291.375305 378.459778,305.246674 378.459778,319.245514 
	C381.121796,319.245514 383.483856,319.245514 386.048096,319.245514 
	C386.048096,316.386536 386.048096,313.904358 386.048431,310.443024 
M399.990601,310.437378 
	C399.990601,303.335785 399.990601,296.234222 399.990601,289.056152 
	C397.122040,289.056152 394.703278,289.056152 392.344604,289.056152 
	C392.344604,299.272644 392.344604,309.190216 392.344604,319.245483 
	C395.008972,319.245483 397.394745,319.245483 399.991302,319.245483 
	C399.991302,316.388733 399.991302,313.901398 399.990601,310.437378 
M473.166016,343.032135 
	C473.166016,339.269867 473.166016,335.507599 473.166016,331.847992 
	C470.491119,331.655701 468.374786,331.116821 466.411621,331.458344 
	C463.839417,331.905884 460.241180,332.337555 459.168884,334.067963 
	C457.759705,336.341919 457.432007,340.253235 458.429291,342.743683 
	C459.219604,344.717346 462.606537,345.841675 465.038940,346.876434 
	C466.054199,347.308289 467.583862,346.530792 469.498840,346.194427 
	C466.029541,352.314270 461.201599,346.183838 457.533936,348.620209 
	C459.792999,353.138275 463.674744,353.511871 467.745087,352.697113 
	C472.474091,351.750549 473.337463,348.058807 473.166016,343.032135 
M373.646332,331.553528 
	C373.213928,338.253479 372.736053,344.951752 372.490662,351.658539 
	C372.479065,351.975494 374.531891,352.368011 375.977112,352.841217 
	C376.141907,350.319397 376.257782,348.546814 376.397888,346.403076 
	C377.319641,346.624573 377.903442,346.764099 378.486847,346.905212 
	C382.069214,347.771637 385.693420,347.289917 386.883728,343.647827 
	C387.804779,340.829620 387.776184,337.067444 386.637970,334.371613 
	C385.242462,331.066284 381.823639,330.213226 378.118042,331.702759 
	C377.092346,332.115051 375.684296,331.576233 373.646332,331.553528 
M406.264709,331.016083 
	C403.325714,331.378052 400.386719,331.740021 397.078125,332.147552 
	C397.078125,338.045563 396.941681,344.000854 397.209106,349.937988 
	C397.254974,350.956451 399.022278,351.897369 400.742249,353.625610 
	C401.055817,350.103210 401.209656,348.374756 401.365326,346.625916 
	C408.023682,347.747070 411.401154,346.341675 412.795166,342.097809 
	C414.376587,337.283478 412.417999,333.532257 406.264709,331.016083 
M337.970154,333.773499 
	C335.237579,332.726196 332.505005,331.678894 329.084900,330.368103 
	C328.553070,325.890839 328.553070,325.890839 325.176544,326.072296 
	C325.176544,332.983673 325.176544,339.896912 325.176544,346.810120 
	C325.595490,347.062836 326.014435,347.315552 326.433380,347.568268 
	C327.255615,346.489227 328.535187,345.509308 328.795349,344.308502 
	C329.209015,342.399323 328.585266,340.246918 329.085602,338.381195 
	C329.437836,337.067871 330.927307,336.059601 331.908997,334.915100 
	C332.844269,336.040894 334.401733,337.073303 334.587616,338.311584 
	C334.997192,341.040222 334.714844,343.872711 334.714844,346.662842 
	C335.173401,346.945740 335.631958,347.228607 336.090515,347.511475 
	C336.949799,346.499847 338.482086,345.527100 338.543213,344.469330 
	C338.732971,341.184509 338.364227,337.867462 337.970154,333.773499 
M442.982086,331.037262 
	C440.441528,331.342438 437.900940,331.647644 435.092041,331.985046 
	C435.092041,336.726227 435.092041,341.647247 435.092041,346.568237 
	C435.483032,346.853516 435.874023,347.138794 436.265015,347.424072 
	C437.115967,346.314392 438.392334,345.314789 438.714844,344.068390 
	C439.160858,342.344788 438.499329,340.308167 439.042908,338.644348 
	C439.504913,337.230194 441.001801,336.154144 442.040802,334.928467 
	C442.886536,336.114136 444.286133,337.223022 444.463409,338.501404 
	C444.839264,341.211731 444.578003,344.010406 444.578003,346.772858 
	C445.093292,347.006653 445.608582,347.240417 446.123840,347.474182 
	C446.914551,346.525421 448.251007,345.659454 448.409424,344.614838 
	C449.646545,336.456909 448.430573,333.105560 442.982086,331.037262 
M361.991455,334.513458 
	C359.048523,331.066589 355.476868,329.843872 351.397858,332.165314 
	C348.061188,334.064270 346.578857,337.180328 347.450378,341.035828 
	C348.517365,345.756439 353.238556,348.378754 357.848694,346.979980 
	C362.491302,345.571320 364.213562,341.066864 361.991455,334.513458 
M309.825226,331.065186 
	C308.528351,332.200836 306.000000,333.574005 306.164673,334.427765 
	C306.665924,337.026672 308.206299,339.425171 309.332825,341.881348 
	C308.208740,342.563171 306.766968,343.437653 304.977936,344.522766 
	C308.509735,347.880615 311.952606,348.497345 314.760345,345.620636 
	C318.454742,341.835602 314.694489,339.235565 312.207825,336.889374 
	C313.517273,335.653473 314.604797,334.627045 316.316467,333.011536 
	C313.877777,332.168610 312.223633,331.596832 309.825226,331.065186 
M421.708832,337.688354 
	C421.708832,340.649475 421.708832,343.610596 421.708832,346.555603 
	C425.535919,346.711151 425.627441,346.712250 425.665314,343.585052 
	C425.734955,337.836914 425.685181,332.087341 425.685181,326.338348 
	C425.157898,326.250977 424.630615,326.163574 424.103333,326.076202 
	C423.310242,329.651550 422.517181,333.226898 421.708832,337.688354 
M395.596588,276.022736 
	C392.418335,276.770905 390.293060,278.794586 391.387817,281.963654 
	C391.977020,283.669250 394.497925,285.756073 396.141174,285.750885 
	C397.748596,285.745850 400.259369,283.566864 400.753510,281.870270 
	C401.659424,278.759674 399.679688,276.613525 395.596588,276.022736 
z"/>
<path fill="#D170CE" opacity="1.000000" stroke="none" 
	d="
M198.868637,304.815521 
	C198.872360,304.383850 198.876083,303.952209 198.943115,303.032898 
	C199.006439,302.545227 199.021729,302.205750 199.021729,302.205750 
	C200.462967,293.878174 201.172134,285.338379 203.510803,277.270966 
	C207.369736,263.959198 219.366196,256.271698 233.194000,257.028839 
	C243.086655,257.570496 250.774857,265.147614 250.916672,275.106720 
	C250.979706,279.533356 249.976227,283.975159 248.862610,288.765930 
	C247.178726,292.082031 246.089066,295.042236 244.641693,298.039307 
	C242.510986,298.716583 240.737976,299.356964 238.971222,299.535065 
	C239.257843,292.902191 239.538223,286.731567 239.818604,280.560974 
	C239.705719,280.267883 239.679764,279.967255 239.810562,279.254639 
	C239.848801,278.600464 239.736526,278.395050 239.543549,278.233917 
	C239.403290,277.728333 239.263031,277.222748 239.354050,276.118347 
	C239.044037,274.688690 238.502762,273.857819 237.961487,273.026917 
	C237.961502,273.026917 237.996307,272.997101 237.962036,272.711029 
	C237.200943,271.915588 236.474136,271.406219 235.747345,270.896851 
	C235.747345,270.896851 235.348907,270.645752 235.103394,270.238342 
	C234.438950,269.605957 234.020035,269.380951 233.601105,269.155945 
	C225.953674,267.667725 220.140472,270.503845 215.464172,277.105682 
	C215.166290,277.488739 215.023468,277.916595 215.023468,277.916595 
	C214.986832,278.126312 214.950180,278.336029 214.632843,278.947449 
	C214.176392,279.549377 214.076080,279.782166 214.051193,280.047577 
	C214.051193,280.047577 214.043549,280.052307 213.787186,280.036743 
	C213.352829,280.016144 213.174850,280.011078 212.734024,279.787537 
	C212.358566,279.098083 212.037170,278.559937 212.163940,278.165924 
	C215.197891,268.735016 231.110138,263.097107 239.157959,267.235992 
	C240.431030,267.890686 241.990540,267.988403 243.417603,268.343689 
	C242.870483,266.806152 242.742645,264.852509 241.702408,263.804382 
	C237.582260,259.653137 232.636002,258.482208 226.790909,259.829834 
	C220.676208,261.239655 215.560440,263.535065 211.357895,268.617950 
	C205.527679,275.669464 202.056549,283.042755 204.245682,292.271179 
	C205.583755,297.911957 205.732529,297.911621 211.099548,294.995911 
	C211.291779,295.003082 211.676498,295.007050 211.676498,295.007050 
	C211.619858,295.479431 211.563202,295.951782 211.120514,296.813721 
	C210.794693,297.792511 210.854904,298.381714 210.915100,298.970917 
	C210.884079,299.436340 210.853073,299.901733 210.360962,300.811829 
	C208.639084,308.872467 207.378281,316.488464 206.078339,324.104401 
	C206.039185,324.104340 206.105743,324.063171 205.799789,324.287231 
	C205.364227,326.034058 205.234619,327.556824 205.142792,329.103455 
	C205.180588,329.127258 205.219315,329.207703 204.846222,329.195496 
	C203.242737,331.688873 202.315308,334.407288 200.729996,336.663513 
	C193.499481,346.954010 183.883850,352.843811 170.591660,351.946167 
	C167.486404,349.912750 164.681915,348.032104 161.906128,345.773743 
	C161.618774,343.935760 161.302734,342.475494 161.338608,341.043335 
	C165.040497,341.589355 166.043610,347.719452 170.824310,345.197296 
	C170.521805,343.581696 170.277679,342.277863 170.401184,341.019531 
	C178.414917,346.077515 185.199326,344.455627 190.431335,339.970001 
	C194.884796,336.151825 197.709808,330.577789 195.179550,324.053833 
	C195.202652,323.568726 195.225769,323.083649 195.718124,322.156860 
	C197.081131,316.081970 197.974884,310.448730 198.868637,304.815521 
z"/>
<path fill="#AD95E5" opacity="1.000000" stroke="none" 
	d="
M262.318420,384.129486 
	C258.399414,389.742523 254.035172,393.917389 247.199142,395.083801 
	C234.717087,397.213531 226.049438,388.758423 228.155823,376.164886 
	C229.858322,365.985962 242.076172,357.186157 252.132629,358.895782 
	C262.243256,360.614563 267.283386,368.665588 264.458710,378.697662 
	C263.966858,380.444489 263.163239,382.103607 262.318420,384.129486 
z"/>
<path fill="#C57BD8" opacity="1.000000" stroke="none" 
	d="
M288.880707,270.959625 
	C288.867188,271.422577 288.853668,271.885559 288.399231,272.780701 
	C285.307556,284.800446 282.656830,296.388031 279.640320,308.021362 
	C277.848053,308.374054 276.421600,308.680939 274.943176,308.577942 
	C272.546875,302.589752 276.148651,297.687775 276.521698,292.571625 
	C277.085724,284.836609 278.231079,277.339172 280.007874,269.863892 
	C281.672516,262.860687 283.209534,255.819992 285.148560,248.892593 
	C285.934326,246.085281 287.636169,243.534348 288.921143,240.866745 
	C288.921143,240.866745 288.983521,240.936737 289.183899,240.843109 
	C289.562042,240.458588 289.739807,240.167679 289.917542,239.876785 
	C289.917542,239.876785 289.870209,239.946121 290.235626,239.918915 
	C304.932465,231.010910 320.515198,234.337982 336.194763,234.539398 
	C335.679016,238.400055 335.872040,241.743500 331.249115,241.852036 
	C326.399200,241.965912 321.553131,242.237656 316.703796,242.387695 
	C310.711182,242.573090 303.993256,241.024033 298.881287,243.225632 
	C289.627136,247.211182 286.890350,262.281189 288.880707,270.959625 
z"/>
<path fill="#2F2F2F" opacity="1.000000" stroke="none" 
	d="
M460.982483,306.261780 
	C456.525452,306.293701 452.558685,306.293701 448.561005,306.293701 
	C449.140442,312.213806 454.501465,315.456146 460.148773,312.630005 
	C464.121643,310.641846 466.883850,311.321442 469.973846,313.567139 
	C465.667297,320.052277 456.276855,322.324432 448.826050,318.684174 
	C441.717560,315.211182 438.422363,306.756561 441.020813,298.657837 
	C443.463959,291.043243 451.372803,286.591095 459.700562,288.142334 
	C467.911591,289.671814 472.669312,296.329498 472.233948,306.229889 
	C468.669861,306.229889 465.071320,306.229889 460.982483,306.261780 
M457.435394,300.215179 
	C459.628265,300.215179 461.821136,300.215179 464.476044,300.215179 
	C462.560333,295.402985 459.261230,294.027679 455.726227,294.656860 
	C453.118591,295.120972 450.796356,297.188782 448.346954,298.542023 
	C448.600830,299.085541 448.854706,299.629028 449.108582,300.172516 
	C451.569519,300.172516 454.030426,300.172516 457.435394,300.215179 
z"/>
<path fill="#2F2F2F" opacity="1.000000" stroke="none" 
	d="
M312.852997,290.722778 
	C322.614471,285.560242 332.818939,288.551086 336.738068,297.410400 
	C340.615295,306.175049 336.324341,316.173920 327.312408,319.374298 
	C319.945160,321.990631 311.954468,319.060913 307.924652,312.265991 
	C303.821320,305.347137 305.600220,297.164948 312.852997,290.722778 
M328.038788,310.440338 
	C331.531219,304.681824 330.704346,298.637878 325.954926,296.219513 
	C322.103699,294.258453 318.525879,294.908783 315.624969,298.133392 
	C312.936218,301.122162 312.974579,307.029022 315.530487,310.104645 
	C318.496460,313.673676 322.440826,313.973572 328.038788,310.440338 
z"/>
<path fill="#333333" opacity="1.000000" stroke="none" 
	d="
M369.508972,291.598572 
	C370.450134,295.741852 371.487091,299.568726 371.750244,303.448029 
	C372.096832,308.557495 371.835388,313.708191 371.835388,319.221893 
	C369.146088,319.221893 366.772736,319.221893 363.929321,319.221893 
	C363.929321,313.424377 363.977875,307.807953 363.910889,302.192871 
	C363.871460,298.890594 363.363464,295.468506 359.262177,295.147766 
	C354.970428,294.812103 352.767853,297.880737 352.502380,301.635773 
	C352.094818,307.400787 352.395294,313.215881 352.395294,319.308655 
	C349.562164,319.308655 347.321686,319.308655 344.664246,319.308655 
	C344.664246,309.298401 344.664246,299.287567 344.664246,287.966461 
	C347.484711,288.941406 349.934753,289.929169 352.471375,290.578735 
	C353.225830,290.771942 354.281830,290.122681 355.100098,289.676727 
	C360.218597,286.887390 364.946014,287.233185 369.508972,291.598572 
z"/>
<path fill="#2F2F2F" opacity="1.000000" stroke="none" 
	d="
M433.875092,295.384766 
	C433.955750,303.563568 433.955750,311.348633 433.955750,319.294495 
	C431.513184,319.294495 429.278839,319.294495 426.350098,319.294495 
	C426.350098,313.230896 426.420319,307.458008 426.323242,301.687988 
	C426.266693,298.326691 425.529083,295.064362 421.256989,295.115448 
	C417.221375,295.163727 415.313324,298.052917 415.054810,301.641663 
	C414.685120,306.773590 414.858154,311.944061 414.771942,317.097626 
	C414.761414,317.726898 414.580963,318.353333 414.431976,319.273010 
	C412.048645,319.273010 409.806793,319.273010 407.243866,319.273010 
	C407.243866,309.290741 407.243866,299.383179 407.243866,288.590118 
	C410.104889,288.940186 412.967896,289.290497 415.830933,289.640808 
	C424.026581,285.836578 429.947815,287.193848 433.875092,295.384766 
z"/>
<path fill="#BD88C6" opacity="1.000000" stroke="none" 
	d="
M280.006104,307.975586 
	C282.656830,296.388031 285.307556,284.800446 288.286560,273.110565 
	C285.852631,289.034424 282.925842,305.034637 280.395172,321.097321 
	C279.059540,329.574860 277.662537,337.812958 271.272461,344.289948 
	C264.280426,351.377075 256.114899,354.924042 246.121292,353.053253 
	C235.740692,351.109955 228.767288,342.277008 230.351044,331.731140 
	C232.892822,314.806000 236.259155,298.004730 239.547821,280.856018 
	C239.538223,286.731567 239.257843,292.902191 238.687439,299.823669 
	C236.773010,309.363312 234.920822,318.118927 233.635056,326.956970 
	C233.112549,330.548523 233.821945,334.319305 233.978775,338.393921 
	C235.167526,345.444794 240.865219,350.041687 248.311752,351.700714 
	C253.195221,352.788727 256.131195,349.540588 259.976654,348.463226 
	C268.109619,346.184753 272.798981,340.245880 275.227081,333.654724 
	C278.193970,325.601166 278.531525,316.578918 280.006104,307.975586 
z"/>
<path fill="#333333" opacity="1.000000" stroke="none" 
	d="
M386.048279,310.932587 
	C386.048096,313.904358 386.048096,316.386536 386.048096,319.245514 
	C383.483856,319.245514 381.121796,319.245514 378.459778,319.245514 
	C378.459778,305.246674 378.459778,291.375305 378.459778,277.174683 
	C380.841644,277.174683 383.241394,277.174683 386.048431,277.174683 
	C386.048431,288.296997 386.048431,299.369995 386.048279,310.932587 
z"/>
<path fill="#BD88C6" opacity="1.000000" stroke="none" 
	d="
M191.113037,379.984375 
	C187.700836,388.500885 181.805542,393.958649 172.436035,395.114868 
	C160.752823,396.556671 152.893265,388.306122 154.943161,376.738892 
	C155.174332,375.434448 155.560471,374.157471 156.253754,372.285950 
	C157.621246,370.163818 158.497452,368.536102 159.616837,367.097626 
	C166.076340,358.796509 178.075470,356.372864 184.669373,361.930420 
	C177.199432,361.347809 170.469543,360.506409 164.219482,365.840302 
	C159.377579,369.972443 156.039703,379.089203 158.976013,385.318726 
	C161.762695,388.096832 164.168823,391.403748 167.406540,392.853363 
	C173.176819,395.436798 185.363266,388.581970 187.851578,382.092560 
	C190.156570,376.081268 188.928772,368.667877 185.010101,364.583191 
	C185.043137,363.426788 185.081528,362.655334 185.448730,361.917542 
	C186.770172,362.367126 187.762802,362.783081 188.755417,363.199066 
	C188.755417,363.199066 188.880478,363.124237 188.881546,363.530579 
	C189.906525,366.294495 190.930435,368.652069 191.954346,371.009674 
	C191.905258,373.269012 191.856201,375.528351 191.612244,378.385681 
	C191.315918,379.317230 191.214478,379.650818 191.113037,379.984375 
z"/>
<path fill="#BD88C6" opacity="1.000000" stroke="none" 
	d="
M289.036591,270.598755 
	C286.890350,262.281189 289.627136,247.211182 298.881287,243.225632 
	C303.993256,241.024033 310.711182,242.573090 316.703796,242.387695 
	C321.553131,242.237656 326.399200,241.965912 331.249115,241.852036 
	C335.872040,241.743500 335.679016,238.400055 336.194763,234.539398 
	C320.515198,234.337982 304.932465,231.010910 290.225281,239.878235 
	C293.776855,233.874039 300.258484,232.948914 306.386993,232.560181 
	C315.982391,231.951584 325.643585,232.362595 335.276672,232.402557 
	C336.028992,232.405670 336.779358,232.885086 337.867218,233.258743 
	C337.205017,236.962112 336.576904,240.474930 335.836731,244.614471 
	C325.861755,244.614471 316.118286,244.571609 306.375397,244.627380 
	C297.842468,244.676208 293.367981,248.547134 291.744690,257.082733 
	C290.910156,261.470886 290.044220,265.852997 289.036591,270.598755 
z"/>
<path fill="#2F2F2F" opacity="1.000000" stroke="none" 
	d="
M399.990967,310.925720 
	C399.991302,313.901398 399.991302,316.388733 399.991302,319.245483 
	C397.394745,319.245483 395.008972,319.245483 392.344604,319.245483 
	C392.344604,309.190216 392.344604,299.272644 392.344604,289.056152 
	C394.703278,289.056152 397.122040,289.056152 399.990601,289.056152 
	C399.990601,296.234222 399.990601,303.335785 399.990967,310.925720 
z"/>
<path fill="#363636" opacity="1.000000" stroke="none" 
	d="
M473.167419,343.466980 
	C473.337463,348.058807 472.474091,351.750549 467.745087,352.697113 
	C463.674744,353.511871 459.792999,353.138275 457.533936,348.620209 
	C461.201599,346.183838 466.029541,352.314270 469.498840,346.194427 
	C467.583862,346.530792 466.054199,347.308289 465.038940,346.876434 
	C462.606537,345.841675 459.219604,344.717346 458.429291,342.743683 
	C457.432007,340.253235 457.759705,336.341919 459.168884,334.067963 
	C460.241180,332.337555 463.839417,331.905884 466.411621,331.458344 
	C468.374786,331.116821 470.491119,331.655701 473.166016,331.847992 
	C473.166016,335.507599 473.166016,339.269867 473.167419,343.466980 
M466.422638,343.126251 
	C469.455505,342.116760 470.098846,339.723846 468.869507,337.309021 
	C468.256073,336.103973 465.798859,334.778290 464.709290,335.135376 
	C463.254639,335.612091 461.105103,338.119507 461.414337,338.958313 
	C462.046783,340.673828 464.120331,341.858093 466.422638,343.126251 
z"/>
<path fill="#BD88C6" opacity="1.000000" stroke="none" 
	d="
M288.581879,240.913803 
	C287.636169,243.534348 285.934326,246.085281 285.148560,248.892593 
	C283.209534,255.819992 281.672516,262.860687 280.007874,269.863892 
	C278.231079,277.339172 277.085724,284.836609 276.521698,292.571625 
	C276.148651,297.687775 272.546875,302.589752 274.671448,308.804810 
	C273.287567,313.929352 272.278046,318.464905 270.909698,322.889496 
	C269.844025,326.335510 268.331726,329.643372 266.964661,332.968140 
	C266.911438,332.923645 266.805725,332.833832 266.805725,332.833832 
	C270.402100,311.731689 273.983948,290.627045 277.604889,269.529144 
	C278.532043,264.126984 279.456970,258.718842 280.613586,253.363297 
	C281.688629,248.385605 283.860565,243.962524 288.581879,240.913803 
z"/>
<path fill="#363636" opacity="1.000000" stroke="none" 
	d="
M374.049011,331.513672 
	C375.684296,331.576233 377.092346,332.115051 378.118042,331.702759 
	C381.823639,330.213226 385.242462,331.066284 386.637970,334.371613 
	C387.776184,337.067444 387.804779,340.829620 386.883728,343.647827 
	C385.693420,347.289917 382.069214,347.771637 378.486847,346.905212 
	C377.903442,346.764099 377.319641,346.624573 376.397888,346.403076 
	C376.257782,348.546814 376.141907,350.319397 375.977112,352.841217 
	C374.531891,352.368011 372.479065,351.975494 372.490662,351.658539 
	C372.736053,344.951752 373.213928,338.253479 374.049011,331.513672 
M378.294678,343.143341 
	C380.186432,342.454681 382.727783,342.257996 383.748840,340.909851 
	C384.467529,339.960968 383.633636,336.949341 382.520966,335.798706 
	C381.722412,334.972931 378.202637,335.140808 377.849121,335.845245 
	C376.968719,337.599396 377.181122,339.911621 377.021820,342.004883 
	C377.003845,342.240845 377.415070,342.509430 378.294678,343.143341 
z"/>
<path fill="#363636" opacity="1.000000" stroke="none" 
	d="
M406.661194,331.062653 
	C412.417999,333.532257 414.376587,337.283478 412.795166,342.097809 
	C411.401154,346.341675 408.023682,347.747070 401.365326,346.625916 
	C401.209656,348.374756 401.055817,350.103210 400.742249,353.625610 
	C399.022278,351.897369 397.254974,350.956451 397.209106,349.937988 
	C396.941681,344.000854 397.078125,338.045563 397.078125,332.147552 
	C400.386719,331.740021 403.325714,331.378052 406.661194,331.062653 
M401.877869,336.379242 
	C402.185852,338.587708 402.208282,340.908813 403.003632,342.925049 
	C403.201233,343.425934 406.615875,343.553009 407.285736,342.769531 
	C408.380402,341.489136 409.208893,339.098389 408.770935,337.571594 
	C407.815735,334.241974 405.155273,334.254395 401.877869,336.379242 
z"/>
<path fill="#BD88C6" opacity="1.000000" stroke="none" 
	d="
M244.999405,298.002441 
	C246.089066,295.042236 247.178726,292.082031 248.627106,289.058777 
	C247.201218,300.316803 245.418213,311.638092 243.630371,322.958679 
	C243.345291,324.763763 243.131195,326.586700 242.724106,328.364685 
	C241.568176,333.413300 242.592789,337.836853 247.210922,340.484192 
	C252.110519,343.292908 256.946686,341.838074 261.171692,338.651764 
	C263.123840,337.179565 264.597321,335.072662 266.546753,333.043671 
	C266.805725,332.833832 266.911438,332.923645 266.954132,333.358154 
	C266.411255,335.443878 266.317719,337.694000 265.158203,338.646515 
	C258.865662,343.815826 248.745056,347.144104 240.832001,339.743042 
	C240.111465,339.331116 239.559067,339.161682 239.003448,338.995697 
	C239.000244,338.999146 239.007507,338.995483 239.006287,338.565063 
	C240.034821,330.354736 240.981415,322.562653 242.122208,314.799042 
	C242.947784,309.180573 244.031052,303.599945 244.999405,298.002441 
z"/>
<path fill="#363636" opacity="1.000000" stroke="none" 
	d="
M338.091187,334.168213 
	C338.364227,337.867462 338.732971,341.184509 338.543213,344.469330 
	C338.482086,345.527100 336.949799,346.499847 336.090515,347.511475 
	C335.631958,347.228607 335.173401,346.945740 334.714844,346.662842 
	C334.714844,343.872711 334.997192,341.040222 334.587616,338.311584 
	C334.401733,337.073303 332.844269,336.040894 331.908997,334.915100 
	C330.927307,336.059601 329.437836,337.067871 329.085602,338.381195 
	C328.585266,340.246918 329.209015,342.399323 328.795349,344.308502 
	C328.535187,345.509308 327.255615,346.489227 326.433380,347.568268 
	C326.014435,347.315552 325.595490,347.062836 325.176544,346.810120 
	C325.176544,339.896912 325.176544,332.983673 325.176544,326.072296 
	C328.553070,325.890839 328.553070,325.890839 329.084900,330.368103 
	C332.505005,331.678894 335.237579,332.726196 338.091187,334.168213 
z"/>
<path fill="#BD88C6" opacity="1.000000" stroke="none" 
	d="
M195.078430,324.418121 
	C197.709808,330.577789 194.884796,336.151825 190.431335,339.970001 
	C185.199326,344.455627 178.414917,346.077515 170.248840,340.694458 
	C168.490204,337.705017 167.251511,335.086121 165.963501,332.362946 
	C158.651230,331.374207 157.434296,332.864380 160.097672,339.858215 
	C160.263458,340.293610 160.684433,340.631836 160.986694,341.015259 
	C161.302734,342.475494 161.618774,343.935760 161.611389,345.585022 
	C159.878204,340.522095 158.468475,335.270111 157.058731,330.018127 
	C157.219208,329.757294 157.416046,329.527618 158.285629,329.221069 
	C161.945511,329.077393 164.969025,329.041748 167.992538,329.006104 
	C169.562973,332.134644 170.545120,335.806671 172.827591,338.277405 
	C177.425537,343.254639 185.763901,342.600769 189.642426,336.901062 
	C192.084061,333.312897 193.242950,328.851868 195.078430,324.418121 
z"/>
<path fill="#333333" opacity="1.000000" stroke="none" 
	d="
M443.412384,331.050720 
	C448.430573,333.105560 449.646545,336.456909 448.409424,344.614838 
	C448.251007,345.659454 446.914551,346.525421 446.123840,347.474182 
	C445.608582,347.240417 445.093292,347.006653 444.578003,346.772858 
	C444.578003,344.010406 444.839264,341.211731 444.463409,338.501404 
	C444.286133,337.223022 442.886536,336.114136 442.040802,334.928467 
	C441.001801,336.154144 439.504913,337.230194 439.042908,338.644348 
	C438.499329,340.308167 439.160858,342.344788 438.714844,344.068390 
	C438.392334,345.314789 437.115967,346.314392 436.265015,347.424072 
	C435.874023,347.138794 435.483032,346.853516 435.092041,346.568237 
	C435.092041,341.647247 435.092041,336.726227 435.092041,331.985046 
	C437.900940,331.647644 440.441528,331.342438 443.412384,331.050720 
z"/>
<path fill="#363636" opacity="1.000000" stroke="none" 
	d="
M362.182007,334.830872 
	C364.213562,341.066864 362.491302,345.571320 357.848694,346.979980 
	C353.238556,348.378754 348.517365,345.756439 347.450378,341.035828 
	C346.578857,337.180328 348.061188,334.064270 351.397858,332.165314 
	C355.476868,329.843872 359.048523,331.066589 362.182007,334.830872 
M352.616211,335.905151 
	C352.585236,338.105774 352.207367,340.398712 352.752380,342.446014 
	C352.899811,342.999817 356.685852,343.536346 357.316437,342.803192 
	C358.472107,341.459656 359.499451,338.520996 358.782043,337.433044 
	C357.916443,336.120239 355.179962,336.041016 352.616211,335.905151 
z"/>
<path fill="#363636" opacity="1.000000" stroke="none" 
	d="
M310.197357,331.045135 
	C312.223633,331.596832 313.877777,332.168610 316.316467,333.011536 
	C314.604797,334.627045 313.517273,335.653473 312.207825,336.889374 
	C314.694489,339.235565 318.454742,341.835602 314.760345,345.620636 
	C311.952606,348.497345 308.509735,347.880615 304.977936,344.522766 
	C306.766968,343.437653 308.208740,342.563171 309.332825,341.881348 
	C308.206299,339.425171 306.665924,337.026672 306.164673,334.427765 
	C306.000000,333.574005 308.528351,332.200836 310.197357,331.045135 
M310.117737,341.437958 
	C310.148804,342.104248 310.126190,342.782471 310.268463,343.424103 
	C310.289948,343.520996 311.079773,343.447510 311.514191,343.452820 
	C311.452271,342.772339 311.390350,342.091888 310.117737,341.437958 
M312.225800,335.828522 
	C311.753571,335.562958 311.299713,335.236908 310.793518,335.083099 
	C310.692871,335.052521 310.391815,335.681274 310.183167,336.005951 
	C310.682190,336.234161 311.181244,336.462372 312.225800,335.828522 
z"/>
<path fill="#F4F4F4" opacity="1.000000" stroke="none" 
	d="
M185.119934,361.887482 
	C178.075470,356.372864 166.076340,358.796509 159.616837,367.097626 
	C158.497452,368.536102 157.621246,370.163818 156.381989,371.927917 
	C154.155975,366.904205 155.058945,365.233368 160.370895,362.719025 
	C164.698395,360.670715 168.844803,358.231476 172.998596,355.838989 
	C173.370743,355.624634 173.206390,354.478882 173.590805,353.435944 
	C176.929779,353.118042 179.969162,353.129883 183.008530,353.141724 
	C183.362244,354.500641 183.388733,356.087433 184.141510,357.168518 
	C185.482986,359.095032 187.263565,360.715759 188.807968,362.831726 
	C187.762802,362.783081 186.770172,362.367126 185.391891,361.976288 
	C185.006226,362.001434 185.119934,361.887482 185.119934,361.887482 
z"/>
<path fill="#363636" opacity="1.000000" stroke="none" 
	d="
M421.716492,337.245300 
	C422.517181,333.226898 423.310242,329.651550 424.103333,326.076202 
	C424.630615,326.163574 425.157898,326.250977 425.685181,326.338348 
	C425.685181,332.087341 425.734955,337.836914 425.665314,343.585052 
	C425.627441,346.712250 425.535919,346.711151 421.708832,346.555603 
	C421.708832,343.610596 421.708832,340.649475 421.716492,337.245300 
z"/>
<path fill="#BD88C6" opacity="1.000000" stroke="none" 
	d="
M183.232071,353.061615 
	C179.969162,353.129883 176.929779,353.118042 173.436569,353.148895 
	C172.555756,353.105865 172.128784,353.020142 171.343506,352.713348 
	C170.985199,352.492279 170.892426,352.098938 170.892426,352.098938 
	C183.883850,352.843811 193.499481,346.954010 200.729996,336.663513 
	C202.315308,334.407288 203.242737,331.688873 204.825775,329.581238 
	C204.303558,332.594391 203.673813,335.324768 202.508652,337.803528 
	C198.759445,345.779541 191.588806,349.689850 183.928619,352.938843 
	C183.928619,352.938843 183.455612,352.981506 183.232071,353.061615 
z"/>
<path fill="#F4F4F4" opacity="1.000000" stroke="none" 
	d="
M184.344589,352.962097 
	C191.588806,349.689850 198.759445,345.779541 202.508652,337.803528 
	C203.673813,335.324768 204.303558,332.594391 205.198868,329.593445 
	C205.219315,329.207703 205.180588,329.127258 205.425598,328.856201 
	C205.815643,327.077820 205.960693,325.570496 206.105743,324.063171 
	C206.105743,324.063171 206.039185,324.104340 206.285019,324.068726 
	C206.530853,324.033081 206.948471,323.977264 206.948471,323.977264 
	C208.960175,329.213593 207.408279,336.725616 203.682648,340.193146 
	C202.856247,340.962311 201.990295,341.876587 201.601578,342.898621 
	C198.624359,350.726410 191.680832,351.813904 184.344589,352.962097 
z"/>
<path fill="#333333" opacity="1.000000" stroke="none" 
	d="
M395.987152,276.021606 
	C399.679688,276.613525 401.659424,278.759674 400.753510,281.870270 
	C400.259369,283.566864 397.748596,285.745850 396.141174,285.750885 
	C394.497925,285.756073 391.977020,283.669250 391.387817,281.963654 
	C390.293060,278.794586 392.418335,276.770905 395.987152,276.021606 
z"/>
<path fill="#F4F4F4" opacity="1.000000" stroke="none" 
	d="
M170.591660,351.946167 
	C170.892426,352.098938 170.985199,352.492279 171.017319,352.691345 
	C169.118530,352.571014 167.067200,352.565277 165.277466,351.878174 
	C157.380249,348.846222 152.678238,337.313843 156.666901,330.091858 
	C158.468475,335.270111 159.878204,340.522095 161.582687,345.962769 
	C164.681915,348.032104 167.486404,349.912750 170.591660,351.946167 
z"/>
<path fill="#BD88C6" opacity="1.000000" stroke="none" 
	d="
M206.955658,323.594727 
	C206.948471,323.977264 206.530853,324.033081 206.324158,324.068787 
	C207.378281,316.488464 208.639084,308.872467 210.232117,301.138794 
	C209.682907,306.696381 208.801453,312.371613 207.701813,318.651428 
	C207.408142,319.816437 207.332672,320.376862 207.257202,320.937317 
	C207.159073,321.695587 207.060959,322.453888 206.955658,323.594727 
z"/>
<path fill="#BD88C6" opacity="1.000000" stroke="none" 
	d="
M198.625916,305.108826 
	C197.974884,310.448730 197.081131,316.081970 195.889114,321.833618 
	C196.521622,316.435394 197.452408,310.918762 198.625916,305.108826 
z"/>
<path fill="#BD88C6" opacity="1.000000" stroke="none" 
	d="
M212.996857,280.006012 
	C213.174850,280.011078 213.352829,280.016144 213.797333,280.043213 
	C213.369186,284.789764 212.674500,289.514282 211.828156,294.622925 
	C211.676498,295.007050 211.291779,295.003082 211.127075,294.569153 
	C210.983398,292.424194 211.004395,290.713165 211.268127,288.832397 
	C211.660828,288.104156 211.810791,287.545624 211.970856,286.589325 
	C212.319595,284.129700 212.658234,282.067841 212.996857,280.006012 
z"/>
<path fill="#F4F4F4" opacity="1.000000" stroke="none" 
	d="
M167.908081,328.617554 
	C164.969025,329.041748 161.945511,329.077393 158.470322,329.088013 
	C160.994965,325.351959 164.404602,326.735352 167.908081,328.617554 
z"/>
<path fill="#F4F4F4" opacity="1.000000" stroke="none" 
	d="
M192.236298,370.776978 
	C190.930435,368.652069 189.906525,366.294495 188.840027,363.590454 
	C193.378220,363.974854 192.731918,367.369781 192.236298,370.776978 
z"/>
<path fill="#BD88C6" opacity="1.000000" stroke="none" 
	d="
M237.991577,273.349457 
	C238.502762,273.857819 239.044037,274.688690 239.347992,275.723572 
	C238.747681,275.175690 238.384674,274.423859 237.991577,273.349457 
z"/>
<path fill="#BD88C6" opacity="1.000000" stroke="none" 
	d="
M235.755371,271.158203 
	C236.474136,271.406219 237.200943,271.915588 237.950195,272.729919 
	C237.236237,272.496460 236.499832,271.958008 235.755371,271.158203 
z"/>
<path fill="#BD88C6" opacity="1.000000" stroke="none" 
	d="
M211.083725,298.762024 
	C210.854904,298.381714 210.794693,297.792511 210.930939,297.119873 
	C211.169022,297.541992 211.210678,298.047546 211.083725,298.762024 
z"/>
<path fill="#F4F4F4" opacity="1.000000" stroke="none" 
	d="
M207.460678,320.736145 
	C207.332672,320.376862 207.408142,319.816437 207.695404,319.053741 
	C207.826157,319.412659 207.745148,319.973785 207.460678,320.736145 
z"/>
<path fill="#BD88C6" opacity="1.000000" stroke="none" 
	d="
M233.716354,269.386841 
	C234.020035,269.380951 234.438950,269.605957 234.959625,270.051880 
	C234.651443,270.054443 234.241516,269.836090 233.716354,269.386841 
z"/>
<path fill="#BD88C6" opacity="1.000000" stroke="none" 
	d="
M198.913528,302.258972 
	C199.021729,302.205750 199.006439,302.545227 198.996796,302.713074 
	C198.723495,302.752075 198.662888,302.562500 198.913528,302.258972 
z"/>
<path fill="#BD88C6" opacity="1.000000" stroke="none" 
	d="
M214.208252,279.931702 
	C214.076080,279.782166 214.176392,279.549377 214.504318,279.239868 
	C214.679916,279.410065 214.582840,279.638489 214.208252,279.931702 
z"/>
<path fill="#BD88C6" opacity="1.000000" stroke="none" 
	d="
M239.490967,278.415771 
	C239.736526,278.395050 239.848801,278.600464 239.876328,279.035828 
	C239.658325,279.061615 239.513702,278.853638 239.490967,278.415771 
z"/>
<path fill="#BD88C6" opacity="1.000000" stroke="none" 
	d="
M215.138367,277.847168 
	C215.023468,277.916595 215.166290,277.488739 215.229401,277.405762 
	C215.443085,277.488190 215.430008,277.639832 215.138367,277.847168 
z"/>
<path fill="#BD88C6" opacity="1.000000" stroke="none" 
	d="
M289.654724,239.943726 
	C289.739807,240.167679 289.562042,240.458588 289.137207,240.839081 
	C289.057373,240.622681 289.224640,240.316681 289.654724,239.943726 
z"/>
<path fill="#F4F4F4" opacity="1.000000" stroke="none" 
	d="
M191.327408,379.819763 
	C191.214478,379.650818 191.315918,379.317230 191.618286,378.805695 
	C191.726730,378.970215 191.634247,379.312683 191.327408,379.819763 
z"/>
<path fill="#DF62CD" opacity="1.000000" stroke="none" 
	d="
M212.734024,279.787537 
	C212.658234,282.067841 212.319595,284.129700 211.681885,286.624451 
	C211.263657,287.705597 211.144516,288.353882 211.025391,289.002136 
	C211.004395,290.713165 210.983398,292.424194 210.934845,294.562012 
	C205.732529,297.911621 205.583755,297.911957 204.245682,292.271179 
	C202.056549,283.042755 205.527679,275.669464 211.357895,268.617950 
	C215.560440,263.535065 220.676208,261.239655 226.790909,259.829834 
	C232.636002,258.482208 237.582260,259.653137 241.702408,263.804382 
	C242.742645,264.852509 242.870483,266.806152 243.417603,268.343689 
	C241.990540,267.988403 240.431030,267.890686 239.157959,267.235992 
	C231.110138,263.097107 215.197891,268.735016 212.163940,278.165924 
	C212.037170,278.559937 212.358566,279.098083 212.734024,279.787537 
z"/>
<path fill="#C57BD8" opacity="1.000000" stroke="none" 
	d="
M244.641693,298.039307 
	C244.031052,303.599945 242.947784,309.180573 242.122208,314.799042 
	C240.981415,322.562653 240.034821,330.354736 238.664856,338.420166 
	C236.873383,338.473328 235.422104,338.240936 233.970840,338.008545 
	C233.821945,334.319305 233.112549,330.548523 233.635056,326.956970 
	C234.920822,318.118927 236.773010,309.363312 238.681198,300.285950 
	C240.737976,299.356964 242.510986,298.716583 244.641693,298.039307 
z"/>
<path fill="#DF62CD" opacity="1.000000" stroke="none" 
	d="
M161.338608,341.043335 
	C160.684433,340.631836 160.263458,340.293610 160.097672,339.858215 
	C157.434296,332.864380 158.651230,331.374207 165.963501,332.362946 
	C167.251511,335.086121 168.490204,337.705017 169.881226,340.648987 
	C170.277679,342.277863 170.521805,343.581696 170.824310,345.197296 
	C166.043610,347.719452 165.040497,341.589355 161.338608,341.043335 
z"/>
<path fill="#BD88C6" opacity="1.000000" stroke="none" 
	d="
M205.799774,324.287231 
	C205.960693,325.570496 205.815643,327.077820 205.387802,328.832397 
	C205.234619,327.556824 205.364227,326.034058 205.799774,324.287231 
z"/>
<path fill="#B78BE0" opacity="1.000000" stroke="none" 
	d="
M233.978775,338.393921 
	C235.422104,338.240936 236.873383,338.473328 238.666077,338.850586 
	C239.007507,338.995483 239.000244,338.999146 239.031509,339.289917 
	C239.708557,339.715668 240.354340,339.850586 241.000122,339.985535 
	C248.745056,347.144104 258.865662,343.815826 265.158203,338.646515 
	C266.317719,337.694000 266.411255,335.443878 267.007385,333.402649 
	C268.331726,329.643372 269.844025,326.335510 270.909698,322.889496 
	C272.278046,318.464905 273.287567,313.929352 274.723389,309.214722 
	C276.421600,308.680939 277.848053,308.374054 279.640320,308.021362 
	C278.531525,316.578918 278.193970,325.601166 275.227081,333.654724 
	C272.798981,340.245880 268.109619,346.184753 259.976654,348.463226 
	C256.131195,349.540588 253.195221,352.788727 248.311752,351.700714 
	C240.865219,350.041687 235.167526,345.444794 233.978775,338.393921 
z"/>
<path fill="#F4F4F4" opacity="1.000000" stroke="none" 
	d="
M456.963379,300.193848 
	C454.030426,300.172516 451.569519,300.172516 449.108582,300.172516 
	C448.854706,299.629028 448.600830,299.085541 448.346954,298.542023 
	C450.796356,297.188782 453.118591,295.120972 455.726227,294.656860 
	C459.261230,294.027679 462.560333,295.402985 464.476044,300.215179 
	C461.821136,300.215179 459.628265,300.215179 456.963379,300.193848 
z"/>
<path fill="#F4F4F4" opacity="1.000000" stroke="none" 
	d="
M327.760162,310.726807 
	C322.440826,313.973572 318.496460,313.673676 315.530487,310.104645 
	C312.974579,307.029022 312.936218,301.122162 315.624969,298.133392 
	C318.525879,294.908783 322.103699,294.258453 325.954926,296.219513 
	C330.704346,298.637878 331.531219,304.681824 327.760162,310.726807 
z"/>
<path fill="#C57BD8" opacity="1.000000" stroke="none" 
	d="
M185.015457,364.968140 
	C188.928772,368.667877 190.156570,376.081268 187.851578,382.092560 
	C185.363266,388.581970 173.176819,395.436798 167.406540,392.853363 
	C164.168823,391.403748 161.762695,388.096832 159.368530,385.312439 
	C165.412903,384.179260 175.782959,374.095123 177.602936,368.133972 
	C180.359940,366.956482 182.687698,365.962311 185.015457,364.968140 
z"/>
<path fill="#D170CE" opacity="1.000000" stroke="none" 
	d="
M185.010101,364.583191 
	C182.687698,365.962311 180.359940,366.956482 177.602936,368.133972 
	C175.782959,374.095123 165.412903,384.179260 159.362656,385.004456 
	C156.039703,379.089203 159.377579,369.972443 164.219482,365.840302 
	C170.469543,360.506409 177.199432,361.347809 184.669373,361.930420 
	C185.119934,361.887482 185.006226,362.001434 185.063080,361.942688 
	C185.081528,362.655334 185.043137,363.426788 185.010101,364.583191 
z"/>
<path fill="#F4F4F4" opacity="1.000000" stroke="none" 
	d="
M466.011536,343.193695 
	C464.120331,341.858093 462.046783,340.673828 461.414337,338.958313 
	C461.105103,338.119507 463.254639,335.612091 464.709290,335.135376 
	C465.798859,334.778290 468.256073,336.103973 468.869507,337.309021 
	C470.098846,339.723846 469.455505,342.116760 466.011536,343.193695 
z"/>
<path fill="#F4F4F4" opacity="1.000000" stroke="none" 
	d="
M377.960968,342.953125 
	C377.415070,342.509430 377.003845,342.240845 377.021820,342.004883 
	C377.181122,339.911621 376.968719,337.599396 377.849121,335.845245 
	C378.202637,335.140808 381.722412,334.972931 382.520966,335.798706 
	C383.633636,336.949341 384.467529,339.960968 383.748840,340.909851 
	C382.727783,342.257996 380.186432,342.454681 377.960968,342.953125 
z"/>
<path fill="#F4F4F4" opacity="1.000000" stroke="none" 
	d="
M402.147308,336.070801 
	C405.155273,334.254395 407.815735,334.241974 408.770935,337.571594 
	C409.208893,339.098389 408.380402,341.489136 407.285736,342.769531 
	C406.615875,343.553009 403.201233,343.425934 403.003632,342.925049 
	C402.208282,340.908813 402.185852,338.587708 402.147308,336.070801 
z"/>
<path fill="#C57BD8" opacity="1.000000" stroke="none" 
	d="
M240.832001,339.743042 
	C240.354340,339.850586 239.708557,339.715668 239.034729,339.286499 
	C239.559067,339.161682 240.111465,339.331116 240.832001,339.743042 
z"/>
<path fill="#F4F4F4" opacity="1.000000" stroke="none" 
	d="
M352.934753,335.666504 
	C355.179962,336.041016 357.916443,336.120239 358.782043,337.433044 
	C359.499451,338.520996 358.472107,341.459656 357.316437,342.803192 
	C356.685852,343.536346 352.899811,342.999817 352.752380,342.446014 
	C352.207367,340.398712 352.585236,338.105774 352.934753,335.666504 
z"/>
<path fill="#FFFEFF" opacity="1.000000" stroke="none" 
	d="
M310.723083,341.424683 
	C311.390350,342.091888 311.452271,342.772339 311.514191,343.452820 
	C311.079773,343.447510 310.289948,343.520996 310.268463,343.424103 
	C310.126190,342.782471 310.148804,342.104248 310.723083,341.424683 
z"/>
<path fill="#FFFEFF" opacity="1.000000" stroke="none" 
	d="
M311.953064,336.259521 
	C311.181244,336.462372 310.682190,336.234161 310.183167,336.005951 
	C310.391815,335.681274 310.692871,335.052521 310.793518,335.083099 
	C311.299713,335.236908 311.753571,335.562958 311.953064,336.259521 
z"/>
<path fill="#D170CE" opacity="1.000000" stroke="none" 
	d="
M211.268127,288.832397 
	C211.144516,288.353882 211.263657,287.705597 211.671783,287.022217 
	C211.810791,287.545624 211.660828,288.104156 211.268127,288.832397 
z"/>
</svg>