<svg xmlns="http://www.w3.org/2000/svg" version="1.1" xmlns:xlink="http://www.w3.org/1999/xlink" xmlns:svgjs="http://svgjs.dev/svgjs" width="100%" height="100%" viewBox="0 0 1000 600"><rect width="1000" height="600" x="0" y="0" fill="#9a4eae"/><g><rect width="333.3333333333333" height="333.3333333333333" rx="13.333333333333334" ry="13.333333333333334" y="150.4422020734772" fill="#d8bfd8" transform="matrix(0.9748869811809048,0,0,0.9748869811809049,0,-9.145316336276636)" x="128.2200012207031"/><path d="M267.58010825909014 333.1802770205361L267.58010825909014 351.6028955104034L203.29439591964987 351.6028955104034L203.29439591964987 333.1802770205361L267.58010825909014 333.1802770205361ZM278.5027269760228 392.10884666502295L232.43129979942395 262.0493267930998L238.41344247545518 262.0493267930998L192.34201529885635 392.10884666502295L170.91344451904294 392.10884666502295L224.72296669946329 242.10885120632904L246.1515374792767 242.10885120632904L299.9312977558362 392.10884666502295L278.5027269760228 392.10884666502295ZM339.990820352543 392.10884666502295L318.56224957272946 392.10884666502295L318.56224957272946 242.10885120632904L368.0562956933263 242.10885120632904Q383.1753428546391 242.10885120632904 394.6336758410671 246.93027963178704Q406.0920088274952 251.75170805724508 412.49081815757836 262.46599344715173Q418.85986558380057 273.18027883705844 418.85986558380057 290.7398021149611L418.85986558380057 290.7398021149611Q418.85986558380057 308.00170635425525 412.49081815757836 318.7755155518837Q406.0920088274952 329.54932474951215 394.6336758410671 334.57908650199613Q383.1753428546391 339.6088482544801 368.0562956933263 339.6088482544801L368.0562956933263 339.6088482544801L339.990820352543 339.6088482544801L339.990820352543 392.10884666502295ZM339.990820352543 260.3231363691704L339.990820352543 321.3945630916387L365.08010530724107 321.3945630916387Q381.44915243070966 321.3945630916387 389.6634378963049 313.95408712642563Q397.8479614580391 306.5136111612126 397.8479614580391 290.97789734584796L397.8479614580391 290.97789734584796Q397.8479614580391 275.3231359150398 390.08010455035685 267.8231361421051Q382.3122476426744 260.3231363691704 365.08010530724107 260.3231363691704L365.08010530724107 260.3231363691704L339.990820352543 260.3231363691704Z " fill="#ffffff" transform="matrix(0.9748869811809048,0,0,0.9748869811809049,0,-9.145316336276636)"/><path d="M613.1028381189236 313.9374793413276L613.1028381189236 326.93803835306585L567.7373979487226 326.93803835306585L567.7373979487226 313.9374793413276L613.1028381189236 313.9374793413276ZM620.8107624441384 355.5224661640119L588.2988636554943 263.741459893744L592.5203698935546 263.741459893744L560.0084711049105 355.5224661640119L544.8866577148435 355.5224661640119L582.8592113387896 249.66977243354273L597.9810247288566 249.66977243354273L635.9325758342054 355.5224661640119L620.8107624441384 355.5224661640119ZM668.5914922530307 357.0346475030186L664.2019658661918 357.0346475030186Q657.0191045059099 357.0346475030186 652.818600786447 354.43033519695155Q648.6390995855812 351.8260228908845 646.8118804676147 347.73053176440794Q645.0056638682456 343.65604315652877 645.0056638682456 339.1825066953006L645.0056638682456 339.1825066953006L645.0056638682456 242.10886573850922L658.6152959193059 242.10886573850922L658.6152959193059 331.3275647399047Q658.6152959193059 337.6703253562939 659.4343941446012 340.86270818308583Q660.2744948884939 344.0340884912805 662.815799638769 345.08421442114627Q665.3361018704469 346.1553428696093 670.5657290011783 346.1553428696093L670.5657290011783 346.1553428696093L668.5914922530307 357.0346475030186ZM704.2747713498694 357.0346475030186L699.8852449630305 357.0346475030186Q692.7023836027487 357.0346475030186 688.522882401883 354.43033519695155Q684.3223786824199 351.8260228908845 682.4951595644534 347.73053176440794Q680.6889429650843 343.65604315652877 680.6889429650843 339.1825066953006L680.6889429650843 339.1825066953006L680.6889429650843 242.10886573850922L694.2985750161446 242.10886573850922L694.2985750161446 331.3275647399047Q694.2985750161446 337.6703253562939 695.1386757600372 340.86270818308583Q695.9577739853326 344.0340884912805 698.4990787356077 345.08421442114627Q701.0193809672855 346.1553428696093 706.249008098017 346.1553428696093L706.249008098017 346.1553428696093L704.2747713498694 357.0346475030186ZM732.1031084913121 355.5224661640119L716.9812951012451 355.5224661640119L716.9812951012451 249.66977243354273L751.9084835285805 249.66977243354273Q762.5777629760167 249.66977243354273 770.6637326359831 253.0721804463078Q778.7497022959495 256.4745884590729 783.2442412757749 264.0354951541064Q787.7597827741978 271.5964018491399 787.7597827741978 283.98788782155594L787.7597827741978 283.98788782155594Q787.7597827741978 296.1693486079988 783.2442412757749 303.772260340227Q778.7497022959495 311.37517207245514 770.6637326359831 314.92459771540143Q762.5777629760167 318.4740233583477 751.9084835285805 318.4740233583477L751.9084835285805 318.4740233583477L732.1031084913121 318.4740233583477L732.1031084913121 355.5224661640119ZM732.1031084913121 262.5233138150997L732.1031084913121 305.6204819767907L749.7872291502517 305.6204819767907Q761.3596168973725 305.6204819767907 767.1563120302314 300.3698523274619Q772.9320046444932 295.11922267813304 772.9320046444932 284.15590797033445L772.9320046444932 284.15590797033445Q772.9320046444932 273.1085831881466 767.4503472905939 267.81594850162315Q761.9686899366945 262.5233138150997 749.7872291502517 262.5233138150997L749.7872291502517 262.5233138150997L732.1031084913121 262.5233138150997ZM813.2988453885332 355.5224661640119L799.6892133374729 355.5224661640119L799.6892133374729 281.42558055268347L813.2988453885332 281.42558055268347L813.2988453885332 355.5224661640119ZM813.2988453885332 264.79158582360975L799.6892133374729 264.79158582360975L799.6892133374729 249.66977243354273L813.2988453885332 249.66977243354273L813.2988453885332 264.79158582360975ZM897.5399474823649 392.1088535605352L883.9303154313046 392.1088535605352L883.9303154313046 339.64456210444155L886.1985874398146 342.37488952209253Q883.1742247618012 349.7047685125556 876.3274036990764 353.3592067484884Q869.4805826363516 357.0346475030186 860.6385223068819 357.0346475030186L860.6385223068819 357.0346475030186Q849.6752075990834 357.0346475030186 842.3033235714257 351.88903044667643Q834.9314395437679 346.7434133903341 831.2349962706404 338.0273681724483Q827.5175504789156 329.2903204359651 827.5175504789156 318.4740233583477L827.5175504789156 318.4740233583477Q827.5175504789156 308.3508093944417 831.4450214566136 299.5297515835693Q835.3934949529089 290.72969629129415 842.7653789805667 285.31104649318684Q850.1372630082243 279.91339921367677 860.4915046767006 279.91339921367677L860.4915046767006 279.91339921367677Q870.9297564195664 279.91339921367677 877.3145220731502 284.0298928587506Q883.699287726734 288.1463865038244 888.3198418181436 295.6442856430659L888.3198418181436 295.6442856430659L884.5393884706267 298.3536105421196L886.954678109318 281.42558055268347L897.5399474823649 281.42558055268347L897.5399474823649 392.1088535605352ZM862.444738906251 344.937196790965L862.444738906251 344.937196790965Q868.577474336667 344.937196790965 873.5970762814254 342.1858668547168Q878.637680744781 339.4135343998711 881.6620434227945 333.59583674841474Q884.6864061008079 327.7781390969584 884.6864061008079 318.4740233583477L884.6864061008079 318.4740233583477Q884.6864061008079 305.0954190118578 878.1756253356401 298.5426332094955Q871.6858470890697 292.0108499257304 862.444738906251 292.0108499257304L862.444738906251 292.0108499257304Q852.6155602027075 292.0108499257304 847.0288902558217 299.0046886186364Q841.4422203089356 305.99852731154243 841.4422203089356 318.4740233583477L841.4422203089356 318.4740233583477Q841.4422203089356 330.94951940515307 847.0288902558217 337.943358098059Q852.6155602027075 344.937196790965 862.444738906251 344.937196790965Z " fill="#ffffff" transform="matrix(0.9748869811809048,0,0,0.9748869811809049,0,-9.145316336276636)"/></g></svg>